# xmcd CD database file
#
# Track frame offsets:
#	150
#	12749
#	26858
#	44950
#	56584
#	74489
#	86662
#	100291
#	116329
#	129730
#	141459
#	156443
#	167930
#	183673
#	199215
#	210307
#
# Disc length: 2935 seconds
#
# Revision: 0
# Processed by: cddbd v1.5.2PL0 Copyright (c) Steve Scherf et al.
# Submitted via: CDex 1.78
#
DISCID=010b7510
DTITLE=Rayburn Anthony - My Car Won't Start
DYEAR=2015
DGENRE=Country
TTITLE0=My Car Won't Start
TTITLE1=Love Is Like An Echo
TTITLE2=You Don't Have To Be Crazy
TTITLE3=I Love Those Country Boogie Woogies
TTITLE4=I Miss Mississippi
TTITLE5=I'll Fly Away
TTITLE6=Does Anybody Sing Trainsongs Anymore
TTITLE7=That's Cool
TTITLE8=The Shipwreck
TTITLE9=That Guy On the Jukebox
TTITLE10=Weekend Cowboy
TTITLE11=There's No Painless Way
TTITLE12=Oh Hej Da
TTITLE13=This Time Marie
TTITLE14=I've Worn Out My Welcome Home
TTITLE15=Gamle Svarten
EXTD=YEAR: 2015
EXTT0=
EXTT1=
EXTT2=
EXTT3=
EXTT4=
EXTT5=
EXTT6=
EXTT7=
EXTT8=
EXTT9=
EXTT10=
EXTT11=
EXTT12=
EXTT13=
EXTT14=
EXTT15=
PLAYORDER=
